# xmcd
# Copyright (C) 1995-1998 Ti Kan
#
# Track frame offsets:
#       150
#       12681
#       25719
#       37957
#       51558
#       66585
#       79198
#       91656
#       103658
#       117401
#       135370
#       147586
#
# Disc length: 2139 seconds
#
# Revision: 0
# Processed by: cddbd v1.5.2PL0 Copyright (c) Steve Scherf et al.
# Submitted via: CD-Import v1.0
#
DISCID=a708590c
DTITLE=Fiesta Norteña - Los 5 Del Valle
DYEAR=1900
DGENRE=
TTITLE0=En La Misma Forma
TTITLE1=A Quién No Le Gusta Eso
TTITLE2=El Rubio Méndez
TTITLE3=Confesión
TTITLE4=A Texana 100x
TTITLE5=Con Billete
TTITLE6=Simpere Tan Linda
TTITLE7=Cruz Sin Nombre
TTITLE8=Luto En Guerrero
TTITLE9=La Anventura
TTITLE10=Jorge Haro
TTITLE11=Abismo
EXTD=
EXTT0=
EXTT1=
EXTT2=
EXTT3=
EXTT4=
EXTT5=
EXTT6=
EXTT7=
EXTT8=
EXTT9=
EXTT10=
EXTT11=
PLAYORDER=
